<svg preserveAspectRatio="none" width="100%" height="100%" overflow="visible" style="display: block;" viewBox="0 0 260.711 267.259" fill="none" xmlns="http://www.w3.org/2000/svg">
<g id="Empty">
<g id="Group" filter="url(#filter0_ddddddi_0_4)">
<path id="Vector" d="M169.046 19.6427H66.6659C56.1463 19.6427 47.6185 28.1705 47.6185 38.6901V141.07C47.6185 151.59 56.1463 160.117 66.6659 160.117H169.046C179.565 160.117 188.093 151.59 188.093 141.07V38.6901C188.093 28.1705 179.565 19.6427 169.046 19.6427Z" fill="url(#paint0_linear_0_4)"/>
</g>
<path id="Vector_2" fill-rule="evenodd" clip-rule="evenodd" d="M68.4517 33.9282C64.8357 33.9282 61.9042 36.8597 61.9042 40.4758C61.9042 44.0918 64.8357 47.0233 68.4517 47.0233H167.26C170.876 47.0233 173.808 44.0918 173.808 40.4758C173.808 36.8597 170.876 33.9282 167.26 33.9282H68.4517ZM62.3613 71.1778C61.9042 72.1445 61.9042 73.3933 61.9042 75.892C61.9042 78.3908 61.9042 79.6396 62.3613 80.6063C62.8324 81.6024 63.6343 82.4043 64.6303 82.8753C65.597 83.3324 66.8458 83.3324 69.3446 83.3324H88.9872C91.486 83.3324 92.7348 83.3324 93.7014 82.8753C94.6975 82.4043 95.4994 81.6024 95.9705 80.6063C96.4276 79.6396 96.4276 78.3908 96.4276 75.892C96.4276 73.3933 96.4276 72.1445 95.9705 71.1778C95.4994 70.1817 94.6975 69.3798 93.7014 68.9088C92.7348 68.4517 91.486 68.4517 88.9872 68.4517H69.3446C66.8458 68.4517 65.597 68.4517 64.6303 68.9088C63.6343 69.3798 62.8324 70.1817 62.3613 71.1778ZM61.9042 118.332C61.9042 115.665 61.9042 114.332 62.4232 113.313C62.8797 112.417 63.6082 111.689 64.5041 111.232C65.5226 110.713 66.8565 110.713 69.5231 110.713H88.8086C91.4753 110.713 92.8092 110.713 93.8276 111.232C94.7236 111.689 95.452 112.417 95.9086 113.313C96.4276 114.332 96.4276 115.665 96.4276 118.332V138.213C96.4276 140.879 96.4276 142.213 95.9086 143.232C95.452 144.128 94.7236 144.856 93.8276 145.313C92.8092 145.832 91.4753 145.832 88.8086 145.832H69.5231C66.8565 145.832 65.5226 145.832 64.5041 145.313C63.6082 144.856 62.8797 144.128 62.4232 143.232C61.9042 142.213 61.9042 140.879 61.9042 138.213V118.332ZM102.899 58.5518C102.38 59.5708 102.38 60.9041 102.38 63.5708V84.0467C102.38 86.7134 102.38 88.0473 102.899 89.0657C103.355 89.9617 104.084 90.6901 104.98 91.1466C105.998 91.6657 107.332 91.6657 109.999 91.6657H129.284C131.951 91.6657 133.285 91.6657 134.303 91.1466C135.199 90.6901 135.928 89.9617 136.384 89.0657C136.903 88.0473 136.903 86.7134 136.903 84.0467V63.5708C136.903 60.9041 136.903 59.5702 136.384 58.5518C135.928 57.6558 135.199 56.9274 134.303 56.4708C133.285 55.9518 131.951 55.9518 129.284 55.9518H109.999C107.332 55.9518 105.998 55.9518 104.98 56.4708C104.084 56.9274 103.355 57.6558 102.899 58.5518ZM102.38 138.391C102.38 135.893 102.38 134.644 102.837 133.677C103.308 132.681 104.11 131.879 105.106 131.408C106.073 130.951 107.322 130.951 109.82 130.951H129.463C131.962 130.951 133.211 130.951 134.177 131.408C135.173 131.879 135.975 132.681 136.446 133.677C136.903 134.644 136.903 135.893 136.903 138.391C136.903 140.89 136.903 142.139 136.446 143.106C135.975 144.102 135.173 144.904 134.177 145.375C133.211 145.832 131.962 145.832 129.463 145.832H109.82C107.322 145.832 106.073 145.832 105.106 145.375C104.11 144.904 103.308 144.102 102.837 143.106C102.38 142.139 102.38 140.89 102.38 138.391ZM143.375 94.2657C142.856 95.2841 142.856 96.618 142.856 99.2847V116.784C142.856 119.451 142.856 120.785 143.375 121.803C143.831 122.699 144.56 123.428 145.456 123.884C146.474 124.403 147.808 124.403 150.475 124.403H169.76C172.427 124.403 173.761 124.403 174.779 123.884C175.675 123.428 176.404 122.699 176.86 121.803C177.379 120.785 177.379 119.451 177.379 116.784V99.2847C177.379 96.618 177.379 95.2841 176.86 94.2657C176.404 93.3697 175.675 92.6413 174.779 92.1847C173.761 91.6657 172.427 91.6657 169.76 91.6657H150.475C147.808 91.6657 146.474 91.6657 145.456 92.1847C144.56 92.6413 143.831 93.3697 143.375 94.2657Z" fill="url(#paint1_linear_0_4)"/>
<g id="Group_2" filter="url(#filter1_ddddddi_0_4)">
<path id="Vector_3" d="M194.045 0H172.617C162.098 0 153.57 8.52782 153.57 19.0474V40.4757C153.57 50.9953 162.098 59.5232 172.617 59.5232H194.045C204.565 59.5232 213.093 50.9953 213.093 40.4757V19.0474C213.093 8.52782 204.565 0 194.045 0Z" fill="url(#paint2_linear_0_4)"/>
</g>
<g id="Group_3" filter="url(#filter2_di_0_4)">
<path id="Vector_4" d="M183.397 49.0458C180.288 49.0339 177.614 48.2689 175.372 46.7506C173.144 45.2328 171.427 43.034 170.222 40.1543C169.029 37.2745 168.439 33.8107 168.45 29.7627C168.45 25.7266 169.047 22.2868 170.24 19.4432C171.445 16.6 173.161 14.4373 175.39 12.9552C177.632 11.4611 180.3 10.7141 183.397 10.7141C186.493 10.7141 189.156 11.4611 191.385 12.9552C193.626 14.4492 195.349 16.6178 196.554 19.461C197.759 22.2924 198.355 25.7262 198.342 29.7627C198.342 33.8226 197.74 37.2924 196.535 40.1721C195.342 43.0519 193.632 45.2508 191.403 46.7691C189.174 48.2869 186.505 49.0458 183.397 49.0458ZM183.397 42.5578C185.517 42.5578 187.21 41.4916 188.475 39.359C189.741 37.2265 190.367 34.0277 190.354 29.7627C190.354 26.9552 190.065 24.6179 189.487 22.7509C188.921 20.883 188.114 19.4793 187.065 18.5396C186.029 17.5999 184.807 17.1301 183.397 17.1301C181.288 17.1301 179.602 18.1843 178.336 20.2926C177.071 22.4013 176.433 25.558 176.421 29.7627C176.421 32.6059 176.704 34.9793 177.27 36.8829C177.849 38.7745 178.662 40.1963 179.71 41.1483C180.758 42.088 181.987 42.5578 183.397 42.5578Z" fill="var(--fill-0, #D8E6FF)"/>
</g>
</g>
<defs>
<filter id="filter0_ddddddi_0_4" x="-1.19209e-07" y="19.6427" width="235.712" height="247.616" filterUnits="userSpaceOnUse" color-interpolation-filters="sRGB">
<feFlood flood-opacity="0" result="BackgroundImageFix"/>
<feColorMatrix in="SourceAlpha" type="matrix" values="0 0 0 0 0 0 0 0 0 0 0 0 0 0 0 0 0 0 127 0" result="hardAlpha"/>
<feOffset dy="1.64701"/>
<feGaussianBlur stdDeviation="0.658921"/>
<feColorMatrix type="matrix" values="0 0 0 0 0.388235 0 0 0 0 0.388235 0 0 0 0 0.388235 0 0 0 0.07 0"/>
<feBlend mode="normal" in2="BackgroundImageFix" result="effect1_dropShadow_0_4"/>
<feColorMatrix in="SourceAlpha" type="matrix" values="0 0 0 0 0 0 0 0 0 0 0 0 0 0 0 0 0 0 127 0" result="hardAlpha"/>
<feOffset dy="3.95829"/>
<feGaussianBlur stdDeviation="1.58332"/>
<feColorMatrix type="matrix" values="0 0 0 0 0.388235 0 0 0 0 0.388235 0 0 0 0 0.388235 0 0 0 0.0503198 0"/>
<feBlend mode="normal" in2="effect1_dropShadow_0_4" result="effect2_dropShadow_0_4"/>
<feColorMatrix in="SourceAlpha" type="matrix" values="0 0 0 0 0 0 0 0 0 0 0 0 0 0 0 0 0 0 127 0" result="hardAlpha"/>
<feOffset dy="7.45349"/>
<feGaussianBlur stdDeviation="2.98151"/>
<feColorMatrix type="matrix" values="0 0 0 0 0.388235 0 0 0 0 0.388235 0 0 0 0 0.388235 0 0 0 0.0417275 0"/>
<feBlend mode="normal" in2="effect2_dropShadow_0_4" result="effect3_dropShadow_0_4"/>
<feColorMatrix in="SourceAlpha" type="matrix" values="0 0 0 0 0 0 0 0 0 0 0 0 0 0 0 0 0 0 127 0" result="hardAlpha"/>
<feOffset dy="13.2951"/>
<feGaussianBlur stdDeviation="5.31839"/>
<feColorMatrix type="matrix" values="0 0 0 0 0.388235 0 0 0 0 0.388235 0 0 0 0 0.388235 0 0 0 0.035 0"/>
<feBlend mode="normal" in2="effect3_dropShadow_0_4" result="effect4_dropShadow_0_4"/>
<feColorMatrix in="SourceAlpha" type="matrix" values="0 0 0 0 0 0 0 0 0 0 0 0 0 0 0 0 0 0 127 0" result="hardAlpha"/>
<feOffset dy="24.8676"/>
<feGaussianBlur stdDeviation="9.94692"/>
<feColorMatrix type="matrix" values="0 0 0 0 0.388235 0 0 0 0 0.388235 0 0 0 0 0.388235 0 0 0 0.0282725 0"/>
<feBlend mode="normal" in2="effect4_dropShadow_0_4" result="effect5_dropShadow_0_4"/>
<feColorMatrix in="SourceAlpha" type="matrix" values="0 0 0 0 0 0 0 0 0 0 0 0 0 0 0 0 0 0 127 0" result="hardAlpha"/>
<feOffset dy="59.5232"/>
<feGaussianBlur stdDeviation="23.8093"/>
<feColorMatrix type="matrix" values="0 0 0 0 0.388235 0 0 0 0 0.388235 0 0 0 0 0.388235 0 0 0 0.0196802 0"/>
<feBlend mode="normal" in2="effect5_dropShadow_0_4" result="effect6_dropShadow_0_4"/>
<feBlend mode="normal" in="SourceGraphic" in2="effect6_dropShadow_0_4" result="shape"/>
<feColorMatrix in="SourceAlpha" type="matrix" values="0 0 0 0 0 0 0 0 0 0 0 0 0 0 0 0 0 0 127 0" result="hardAlpha"/>
<feOffset dy="0.595232"/>
<feGaussianBlur stdDeviation="1.19046"/>
<feComposite in2="hardAlpha" operator="arithmetic" k2="-1" k3="1"/>
<feColorMatrix type="matrix" values="0 0 0 0 1 0 0 0 0 1 0 0 0 0 1 0 0 0 1 0"/>
<feBlend mode="normal" in2="shape" result="effect7_innerShadow_0_4"/>
</filter>
<filter id="filter1_ddddddi_0_4" x="105.951" y="0" width="154.76" height="166.665" filterUnits="userSpaceOnUse" color-interpolation-filters="sRGB">
<feFlood flood-opacity="0" result="BackgroundImageFix"/>
<feColorMatrix in="SourceAlpha" type="matrix" values="0 0 0 0 0 0 0 0 0 0 0 0 0 0 0 0 0 0 127 0" result="hardAlpha"/>
<feOffset dy="1.64701"/>
<feGaussianBlur stdDeviation="0.658921"/>
<feColorMatrix type="matrix" values="0 0 0 0 0.388235 0 0 0 0 0.388235 0 0 0 0 0.388235 0 0 0 0.07 0"/>
<feBlend mode="normal" in2="BackgroundImageFix" result="effect1_dropShadow_0_4"/>
<feColorMatrix in="SourceAlpha" type="matrix" values="0 0 0 0 0 0 0 0 0 0 0 0 0 0 0 0 0 0 127 0" result="hardAlpha"/>
<feOffset dy="3.95829"/>
<feGaussianBlur stdDeviation="1.58332"/>
<feColorMatrix type="matrix" values="0 0 0 0 0.388235 0 0 0 0 0.388235 0 0 0 0 0.388235 0 0 0 0.0503198 0"/>
<feBlend mode="normal" in2="effect1_dropShadow_0_4" result="effect2_dropShadow_0_4"/>
<feColorMatrix in="SourceAlpha" type="matrix" values="0 0 0 0 0 0 0 0 0 0 0 0 0 0 0 0 0 0 127 0" result="hardAlpha"/>
<feOffset dy="7.45349"/>
<feGaussianBlur stdDeviation="2.98151"/>
<feColorMatrix type="matrix" values="0 0 0 0 0.388235 0 0 0 0 0.388235 0 0 0 0 0.388235 0 0 0 0.0417275 0"/>
<feBlend mode="normal" in2="effect2_dropShadow_0_4" result="effect3_dropShadow_0_4"/>
<feColorMatrix in="SourceAlpha" type="matrix" values="0 0 0 0 0 0 0 0 0 0 0 0 0 0 0 0 0 0 127 0" result="hardAlpha"/>
<feOffset dy="13.2951"/>
<feGaussianBlur stdDeviation="5.31839"/>
<feColorMatrix type="matrix" values="0 0 0 0 0.388235 0 0 0 0 0.388235 0 0 0 0 0.388235 0 0 0 0.035 0"/>
<feBlend mode="normal" in2="effect3_dropShadow_0_4" result="effect4_dropShadow_0_4"/>
<feColorMatrix in="SourceAlpha" type="matrix" values="0 0 0 0 0 0 0 0 0 0 0 0 0 0 0 0 0 0 127 0" result="hardAlpha"/>
<feOffset dy="24.8676"/>
<feGaussianBlur stdDeviation="9.94692"/>
<feColorMatrix type="matrix" values="0 0 0 0 0.388235 0 0 0 0 0.388235 0 0 0 0 0.388235 0 0 0 0.0282725 0"/>
<feBlend mode="normal" in2="effect4_dropShadow_0_4" result="effect5_dropShadow_0_4"/>
<feColorMatrix in="SourceAlpha" type="matrix" values="0 0 0 0 0 0 0 0 0 0 0 0 0 0 0 0 0 0 127 0" result="hardAlpha"/>
<feOffset dy="59.5232"/>
<feGaussianBlur stdDeviation="23.8093"/>
<feColorMatrix type="matrix" values="0 0 0 0 0.388235 0 0 0 0 0.388235 0 0 0 0 0.388235 0 0 0 0.0196802 0"/>
<feBlend mode="normal" in2="effect5_dropShadow_0_4" result="effect6_dropShadow_0_4"/>
<feBlend mode="normal" in="SourceGraphic" in2="effect6_dropShadow_0_4" result="shape"/>
<feColorMatrix in="SourceAlpha" type="matrix" values="0 0 0 0 0 0 0 0 0 0 0 0 0 0 0 0 0 0 127 0" result="hardAlpha"/>
<feOffset dy="0.595232"/>
<feGaussianBlur stdDeviation="1.19046"/>
<feComposite in2="hardAlpha" operator="arithmetic" k2="-1" k3="1"/>
<feColorMatrix type="matrix" values="0 0 0 0 1 0 0 0 0 1 0 0 0 0 1 0 0 0 1 0"/>
<feBlend mode="normal" in2="shape" result="effect7_innerShadow_0_4"/>
</filter>
<filter id="filter2_di_0_4" x="166.069" y="10.7141" width="34.6541" height="43.0936" filterUnits="userSpaceOnUse" color-interpolation-filters="sRGB">
<feFlood flood-opacity="0" result="BackgroundImageFix"/>
<feColorMatrix in="SourceAlpha" type="matrix" values="0 0 0 0 0 0 0 0 0 0 0 0 0 0 0 0 0 0 127 0" result="hardAlpha"/>
<feOffset dy="2.38093"/>
<feGaussianBlur stdDeviation="1.19046"/>
<feComposite in2="hardAlpha" operator="out"/>
<feColorMatrix type="matrix" values="0 0 0 0 1 0 0 0 0 1 0 0 0 0 1 0 0 0 0.25 0"/>
<feBlend mode="normal" in2="BackgroundImageFix" result="effect1_dropShadow_0_4"/>
<feBlend mode="normal" in="SourceGraphic" in2="effect1_dropShadow_0_4" result="shape"/>
<feColorMatrix in="SourceAlpha" type="matrix" values="0 0 0 0 0 0 0 0 0 0 0 0 0 0 0 0 0 0 127 0" result="hardAlpha"/>
<feOffset dy="0.595232"/>
<feGaussianBlur stdDeviation="2.97616"/>
<feComposite in2="hardAlpha" operator="arithmetic" k2="-1" k3="1"/>
<feColorMatrix type="matrix" values="0 0 0 0 0.804167 0 0 0 0 0.804167 0 0 0 0 0.804167 0 0 0 1 0"/>
<feBlend mode="normal" in2="shape" result="effect2_innerShadow_0_4"/>
</filter>
<linearGradient id="paint0_linear_0_4" x1="117.856" y1="19.6427" x2="117.856" y2="160.117" gradientUnits="userSpaceOnUse">
<stop stop-color="#F9FAFB"/>
<stop offset="1" stop-color="white"/>
</linearGradient>
<linearGradient id="paint1_linear_0_4" x1="119.642" y1="33.9282" x2="119.642" y2="145.832" gradientUnits="userSpaceOnUse">
<stop stop-color="#D8E6FF"/>
<stop offset="1" stop-color="#B9CFFF"/>
</linearGradient>
<linearGradient id="paint2_linear_0_4" x1="183.331" y1="0" x2="183.331" y2="59.5232" gradientUnits="userSpaceOnUse">
<stop stop-color="#F7F7F7"/>
<stop offset="1" stop-color="white"/>
</linearGradient>
</defs>
</svg>
